Coordinates
version=1
nRows=27
nColumns=38
inDegrees=no

Units are S.I. units (second, meters, Newtons, ...)
If the header above contains a line with 'inDegrees', this indicates whether rotational values are in degrees (yes) or radians (no).

endheader
time	pelvis_tilt	pelvis_list	pelvis_rotation	pelvis_tx	pelvis_ty	pelvis_tz	hip_flexion_r	hip_adduction_r	hip_rotation_r	knee_angle_r	ankle_angle_r	subtalar_angle_r	mtp_angle_r	hip_flexion_l	hip_adduction_l	hip_rotation_l	knee_angle_l	ankle_angle_l	subtalar_angle_l	mtp_angle_l	lumbar_extension	lumbar_bending	lumbar_rotation	arm_flex_r	arm_add_r	arm_rot_r	elbow_flex_r	pro_sup_r	wrist_flex_r	wrist_dev_r	arm_flex_l	arm_add_l	arm_rot_l	elbow_flex_l	pro_sup_l	wrist_flex_l	wrist_dev_l
0	2.29944	1.39504	-0.800071	0.733947	-0.977649	0.951749	0.0913355	0.0658501	-0.694439	0.356142	-0.465502	0	0	-0.0576704	-0.29148	-0.250703	0.954429	-0.35135	0	0	-0.246357	0.177974	0.0684026	0.0673786	-0.351522	1.05378	0.403416	0.697226	0	0	-0.0544725	-0.164599	-0.0103339	0.412517	1.5708	0	0
0.01	2.43134	1.38917	-0.94049	0.737459	-0.969772	0.95579	0.0556213	0.0562558	-0.692	0.348427	-0.44979	0	0	-0.0521195	-0.281825	-0.246714	0.985093	-0.355527	0	0	-0.271107	0.157582	0.0801306	0.0687014	-0.342964	1.03911	0.393058	0.717093	0	0	-0.0495527	-0.169394	-0.000808581	0.415335	1.5708	0	0
0.02	2.44439	1.38764	-0.955985	0.739058	-0.961361	0.956694	0.0405132	0.0574011	-0.691963	0.343123	-0.462983	0	0	-0.032947	-0.280905	-0.23346	1.01366	-0.318561	0	0	-0.274674	0.156054	0.0847449	0.0693228	-0.344825	1.04585	0.39381	0.705691	0	0	-0.0492303	-0.167305	-0.00174298	0.416754	1.5708	0	0
0.03	2.33526	1.39901	-0.84894	0.740544	-0.953746	0.954119	0.0501234	0.0803395	-0.659615	0.327946	-0.382275	0	0	0.0335232	-0.294416	-0.211915	1.06795	-0.284722	0	0	-0.252541	0.164655	0.0887654	0.0674669	-0.346168	1.04226	0.392889	0.700416	0	0	-0.0539759	-0.165725	0.00178435	0.424147	1.5708	0	0
0.04	2.46177	1.39471	-0.985627	0.743681	-0.946272	0.95778	0.0132645	0.0780829	-0.618625	0.305923	-0.348187	0	0	0.030531	-0.288786	-0.228769	1.07854	-0.25776	0	0	-0.275188	0.143826	0.100318	0.0717845	-0.338477	1.03834	0.382996	0.704914	0	0	-0.0482685	-0.167422	0.00317592	0.423933	1.5708	0	0
0.05	2.52795	1.39525	-1.04641	0.744595	-0.940793	0.960125	-0.0115544	0.0801001	-0.572302	0.279338	-0.315369	0	0	0.0584894	-0.3046	-0.255112	1.1053	-0.240563	0	0	-0.289304	0.131938	0.0974138	0.081304	-0.332061	1.03662	0.373587	0.708624	0	0	-0.0374284	-0.168413	0.00720546	0.423767	1.5708	0	0
0.06	2.18726	1.41003	-0.709192	0.746616	-0.930753	0.953635	0.0126116	0.136181	-0.505107	0.239939	-0.269837	0	0	0.115655	-0.309274	-0.195909	1.09782	-0.16823	0	0	-0.227266	0.164636	0.102862	0.0686715	-0.328517	1.03203	0.356714	0.714686	0	0	-0.0559016	-0.163678	0.00950017	0.431194	1.5708	0	0
0.07	2.17327	1.40491	-0.698701	0.747964	-0.923811	0.953483	-0.01601	0.157216	-0.435997	0.198973	-0.241278	0	0	0.142201	-0.313913	-0.184792	1.11351	-0.14391	0	0	-0.234831	0.176141	0.11202	0.068299	-0.345341	1.02506	0.381912	0.718803	0	0	-0.0511377	-0.157944	0.0118505	0.432353	1.5708	0	0
0.08	2.22051	1.41067	-0.738824	0.746926	-0.919451	0.955593	-0.0584595	0.147186	-0.238861	0	-0.44688	0	0	0.176374	-0.293457	-0.15984	1.12023	-0.138588	0	0	-0.240614	0.162559	0.0999436	0.0826534	-0.331901	1.04684	0.354639	0.684529	0	0	-0.0429691	-0.158021	0.010626	0.428632	1.5708	0	0
0.09	2.56581	1.42549	-1.10972	0.751782	-0.909094	0.958083	-0.125951	0.121118	-0.260074	0	-0.0791901	0	0	0.191423	-0.244739	-0.177497	1.1515	-0.162031	0	0	-0.26439	0.104555	0.125588	0.079443	-0.335249	1.04231	0.371668	0.677749	0	0	-0.0425519	-0.166608	0.0217603	0.439709	1.5708	0	0
0.1	2.67739	1.42451	-1.22796	0.753695	-0.902168	0.959862	-0.144623	0.105964	-0.261917	0	-0.0441699	0	0	0.209436	-0.213776	-0.158974	1.14913	-0.157759	0	0	-0.27502	0.0841584	0.141804	0.0671448	-0.305834	0.850304	0.326747	0.935322	0	0	-0.0500186	-0.204588	0.21578	0.496153	1.27599	0	0
0.11	2.72903	1.42353	-1.28684	0.754985	-0.894978	0.961166	-0.157466	0.0972911	-0.25727	0	-0.0645382	0	0	0.226997	-0.20243	-0.158132	1.14214	-0.14696	0	0	-0.282113	0.0778034	0.142665	0.0829041	-0.335071	1.01902	0.367901	0.701662	0	0	-0.0295615	-0.165819	0.0308111	0.434977	1.5708	0	0
0.12	2.74772	1.42213	-1.31178	0.756085	-0.887317	0.961764	-0.168202	0.0926285	-0.249981	0	-0.0679794	0	0	0.240266	-0.208105	-0.178155	1.12854	-0.130723	0	0	-0.286306	0.0746668	0.152095	0.0810704	-0.334964	0.987214	0.362967	0.749008	0	0	-0.0250046	-0.163732	0.0360834	0.433531	1.5708	0	0
0.13	2.74096	1.3928	-1.31907	0.754634	-0.883731	0.96659	-0.177881	0.0686217	-0.141458	0	-0.272851	0	0	0.212112	-0.205257	-0.182545	1.08403	-0.103857	0	0	-0.332935	0.0861799	0.166434	0.102093	-0.351976	0.99533	0.368228	0.742932	0	0	-0.0060044	-0.149159	0.0387506	0.423339	1.5708	0	0
0.14	2.76127	1.39956	-1.33011	0.756281	-0.874729	0.967166	-0.181123	0.0663531	-0.196343	0	-0.340988	0	0	0.248478	-0.187958	-0.154076	1.07827	-0.100271	0	0	-0.317115	0.0743867	0.159812	0.0948142	-0.329839	0.982139	0.335905	0.758337	0	0	-0.00443407	-0.157067	0.0519185	0.413942	1.5708	0	0
0.15	2.75697	1.39276	-1.34392	0.761014	-0.865034	0.967495	-0.188478	0.0777074	-0.399518	0.132332	-0.257564	0	0	0.245171	-0.196768	-0.181508	1.05241	-0.0842242	0	0	-0.326756	0.0749316	0.186192	0.093421	-0.345825	1.00088	0.361185	0.732047	0	0	-0.000555223	-0.15464	0.045042	0.411316	1.5708	0	0
0.16	2.79264	1.39785	-1.38054	0.761132	-0.857681	0.967163	-0.171981	0.052131	-0.481881	0.179422	-0.259707	0	0	0.249213	-0.187746	-0.196944	1.00443	-0.0662755	0	0	-0.324734	0.0686088	0.187505	0.0959418	-0.350416	1.00377	0.363703	0.726017	0	0	0.0020901	-0.152582	0.0484437	0.411692	1.5708	0	0
0.17	2.84696	1.39886	-1.42665	0.760013	-0.851867	0.966919	-0.222684	0.0618116	-0.248097	0	-0.224015	0	0	0.276087	-0.18434	-0.197737	1.00748	0.0397397	0	0	-0.329943	0.0619757	0.179102	0.101161	-0.352957	1.00722	0.363757	0.720603	0	0	0.00869569	-0.150835	0.0504639	0.412321	1.5708	0	0
0.18	2.86021	1.36083	-1.44435	0.761632	-0.843425	0.971517	-0.268792	0.0508021	-0.366378	0	0.523599	0	0	0.227763	-0.192588	-0.234307	0.936782	-0.0518113	0	0	-0.371273	0.0618111	0.186899	0.0995475	-0.338211	0.914737	0.338373	0.840838	0	0	0.000969118	-0.171742	0.163124	0.44819	1.44442	0	0
0.19	2.91671	1.40077	-1.51052	0.764243	-0.836352	0.967306	-0.195463	0.0243613	-0.502191	0.190398	-0.214003	0	0	0.290725	-0.169622	-0.230508	0.939199	0.0559902	0	0	-0.332992	0.041084	0.19909	0.0968763	-0.331548	0.872304	0.330924	0.893245	0	0	-0.00104074	-0.185226	0.231651	0.465675	1.33411	0	0
0.2	2.94055	1.39612	-1.54174	0.766228	-0.828241	0.967743	-0.207301	0.0140641	-0.529465	0.198001	-0.231958	0	0	0.269177	-0.174223	-0.280362	0.851381	-0.0327288	0	0	-0.338996	0.0343714	0.204406	0.0997722	-0.335258	0.891493	0.337381	0.868836	0	0	0.000603159	-0.180016	0.205068	0.459202	1.38399	0	0
0.21	2.97303	1.39232	-1.57723	0.767271	-0.820811	0.968018	-0.218269	0.00281231	-0.550851	0.203713	-0.246253	0	0	0.261642	-0.164831	-0.299673	0.795239	-0.0252896	0	0	-0.346131	0.0270274	0.205731	0.105359	-0.337694	0.911815	0.338743	0.848061	0	0	0.00568727	-0.174459	0.183196	0.451444	1.42625	0	0
0.22	2.99561	1.38996	-1.60156	0.76809	-0.813413	0.967948	-0.228479	-0.0057529	-0.569749	0.207159	-0.258493	0	0	0.255063	-0.155675	-0.31809	0.736257	-0.019611	0	0	-0.351577	0.0219344	0.205751	0.111136	-0.340113	0.931632	0.339812	0.830293	0	0	0.0111118	-0.168838	0.164006	0.441823	1.4625	0	0
0.23	3.01289	1.38888	-1.61996	0.768783	-0.805957	0.967567	-0.237447	-0.0129248	-0.586253	0.210488	-0.268667	0	0	0.248987	-0.145866	-0.335504	0.674755	-0.016608	0	0	-0.35526	0.0181453	0.204905	0.116625	-0.342884	0.947314	0.34222	0.81266	0	0	0.0159622	-0.163547	0.145756	0.432275	1.49358	0	0
0.24	3.03169	1.38785	-1.63967	0.769397	-0.798481	0.967121	-0.249381	-0.0165906	-0.58483	0.20617	-0.263741	0	0	0.24175	-0.133877	-0.350735	0.610673	-0.0193684	0	0	-0.359282	0.0141223	0.20372	0.122012	-0.344587	0.956132	0.343312	0.794737	0	0	0.0235693	-0.155893	0.116515	0.416213	1.53623	0	0
0.25	3.11659	1.37863	-1.72076	0.770033	-0.792947	0.968409	-0.270572	-0.0278255	-0.565161	0.192503	-0.243511	0	0	0.224263	-0.0953743	-0.318996	0.523037	-0.0894471	0	0	-0.376841	-0.00564992	0.196706	0.132496	-0.336753	0.936999	0.334128	0.81629	0	0	0.0348942	-0.161916	0.143966	0.417809	1.49231	0	0
0.26	3.07217	1.38946	-1.67486	0.769959	-0.784228	0.965615	-0.275754	-0.0141826	-0.549889	0.180638	-0.226066	0	0	0.239838	-0.1017	-0.348555	0.480937	-0.0814536	0	0	-0.365395	0.00621253	0.19783	0.130281	-0.338851	0.923526	0.33274	0.834246	0	0	0.0314971	-0.161275	0.163161	0.420642	1.45937	0	0
